<svg xmlns="http://www.w3.org/2000/svg" viewBox="0 0 500 350" width="500" height="350">
  <defs>
    <linearGradient id="dellChassis" x1="0%" y1="0%" x2="0%" y2="100%">
      <stop offset="0%" stop-color="#475569" />
      <stop offset="100%" stop-color="#334155" />
    </linearGradient>
    <filter id="lapShadow" x="-10%" y="-10%" width="120%" height="120%">
      <feDropShadow dx="0" dy="12" stdDeviation="14" flood-color="#0F172A" flood-opacity="0.2" />
    </filter>
  </defs>
  <rect width="500" height="350" rx="12" fill="#F8FAFC" />
  
  <rect x="25" y="25" width="110" height="26" rx="13" fill="#2563EB" fill-opacity="0.12" />
  <text x="80" y="42" text-anchor="middle" font-family="sans-serif" font-size="11" font-weight="700" fill="#2563EB">11TH GEN i5</text>

  <g transform="translate(50, 40)" filter="url(#lapShadow)">
    <rect x="50" y="20" width="300" height="190" rx="10" fill="url(#dellChassis)" stroke="#64748B" stroke-width="1.5" />
    <rect x="60" y="30" width="280" height="170" rx="4" fill="#0B132B" />
    
    <circle cx="200" cy="115" r="30" fill="#0076CE" opacity="0.15" />
    <text x="200" y="112" text-anchor="middle" font-family="sans-serif" font-size="18" font-weight="800" fill="#0076CE">DELL</text>
    <text x="200" y="130" text-anchor="middle" font-family="sans-serif" font-size="10" fill="#94A3B8">Latitude 5420 • Iris Xe</text>

    <path d="M 10 210 L 390 210 C 398 210, 405 218, 398 226 L 350 252 C 345 255, 335 258, 320 258 L 80 258 C 65 258, 55 255, 50 252 L 2 226 C -5 218, 2 210, 10 210 Z" fill="#334155" />
    <rect x="165" y="226" width="70" height="24" rx="3" fill="#1E293B" stroke="#475569" stroke-width="0.5" />
  </g>
</svg>
